<?xml version="1.0" encoding="UTF-8"?>
<svg version="1.1" xmlns="http://www.w3.org/2000/svg" width="1920" height="1483">
<path d="M0 0 C1.63621307 -0.00639748 1.63621307 -0.00639748 3.30548096 -0.01292419 C5.10866287 -0.01224442 5.10866287 -0.01224442 6.94827271 -0.0115509 C8.84101929 -0.01658882 8.84101929 -0.01658882 10.77200317 -0.02172852 C14.23898972 -0.0305785 17.70595161 -0.03290707 21.17294836 -0.0335443 C24.06559642 -0.03449283 26.95823871 -0.03817054 29.85088456 -0.0417164 C36.67534242 -0.04986499 43.4997871 -0.05230029 50.32424927 -0.05158997 C57.36676901 -0.05098927 64.40921214 -0.06153857 71.45171249 -0.07733363 C77.49508108 -0.09040541 83.53842463 -0.09577401 89.58180726 -0.09513456 C93.19251389 -0.09487943 96.80315249 -0.09773838 100.41384506 -0.10831261 C104.44099928 -0.11978392 108.4679817 -0.11524899 112.49514771 -0.10920715 C113.69322052 -0.11482666 114.89129333 -0.12044617 116.12567139 -0.12623596 C117.77034393 -0.11994423 117.77034393 -0.11994423 119.44824219 -0.11352539 C120.40062208 -0.11407016 121.35300198 -0.11461493 122.33424187 -0.1151762 C124.85110474 0.13371277 124.85110474 0.13371277 128.85110474 2.13371277 C128.85110474 35.46371277 128.85110474 68.79371277 128.85110474 103.13371277 C461.16110474 103.13371277 793.47110474 103.13371277 1135.85110474 103.13371277 C1135.85110474 113.69371277 1135.85110474 124.25371277 1135.85110474 135.13371277 C803.54110474 135.13371277 471.23110474 135.13371277 128.85110474 135.13371277 C128.85110474 468.10371277 128.85110474 801.07371277 128.85110474 1144.13371277 C118.29110474 1144.13371277 107.73110474 1144.13371277 96.85110474 1144.13371277 C96.85110474 811.16371277 96.85110474 478.19371277 96.85110474 135.13371277 C62.86110474 135.13371277 28.87110474 135.13371277 -6.14889526 135.13371277 C-7.43201505 132.5674732 -7.27187672 130.75616546 -7.26914978 127.88197327 C-7.27052444 126.7685556 -7.27189911 125.65513794 -7.27331543 124.50798035 C-7.26972015 123.28087341 -7.26612488 122.05376648 -7.26242065 120.78947449 C-7.26256668 119.50171112 -7.26271271 118.21394775 -7.26286316 116.88716125 C-7.26315076 113.35018854 -7.25726009 109.81324955 -7.2502892 106.27628469 C-7.24404942 102.5820441 -7.24345137 98.88780279 -7.24226379 95.19355774 C-7.23915233 88.19542173 -7.23094141 81.19730129 -7.2209143 74.19917214 C-7.20974745 66.23313679 -7.20424127 58.26710071 -7.19921887 50.30105948 C-7.18875866 33.91193479 -7.17116277 17.52282576 -7.14889526 1.13371277 C-4.60983598 -0.13581688 -2.84326135 0.00500708 0 0 Z M22.85110474 28.13371277 C22.85110474 52.88371277 22.85110474 77.63371277 22.85110474 103.13371277 C47.27110474 103.13371277 71.69110474 103.13371277 96.85110474 103.13371277 C96.85110474 78.38371277 96.85110474 53.63371277 96.85110474 28.13371277 C72.43110474 28.13371277 48.01110474 28.13371277 22.85110474 28.13371277 Z M97.85110474 28.13371277 C97.85110474 52.88371277 97.85110474 77.63371277 97.85110474 103.13371277 C98.18110474 103.13371277 98.51110474 103.13371277 98.85110474 103.13371277 C98.85110474 78.38371277 98.85110474 53.63371277 98.85110474 28.13371277 C98.52110474 28.13371277 98.19110474 28.13371277 97.85110474 28.13371277 Z M20.85110474 30.13371277 C20.85110474 54.22371277 20.85110474 78.31371277 20.85110474 103.13371277 C21.18110474 103.13371277 21.51110474 103.13371277 21.85110474 103.13371277 C21.85110474 79.04371277 21.85110474 54.95371277 21.85110474 30.13371277 C21.52110474 30.13371277 21.19110474 30.13371277 20.85110474 30.13371277 Z M20.85110474 104.13371277 C20.85110474 104.46371277 20.85110474 104.79371277 20.85110474 105.13371277 C46.59110474 105.13371277 72.33110474 105.13371277 98.85110474 105.13371277 C98.85110474 104.80371277 98.85110474 104.47371277 98.85110474 104.13371277 C73.11110474 104.13371277 47.37110474 104.13371277 20.85110474 104.13371277 Z " fill="#000000" transform="translate(371.1488952636719,214.8662872314453)"/>
<path d="M0 0 C327.36 0 654.72 0 992 0 C992 9.24 992 18.48 992 28 C673.88 28 355.76 28 28 28 C28 350.41 28 672.82 28 1005 C18.76 1005 9.52 1005 0 1005 C0 673.35 0 341.7 0 0 Z " fill="#000000" transform="translate(508,356)"/>
<path d="M0 0 C0.33 0 0.66 0 1 0 C1 330.66 1 661.32 1 1002 C0.67 1002 0.34 1002 0 1002 C0 671.34 0 340.68 0 0 Z " fill="#000000" transform="translate(506,359)"/>
<path d="M0 0 C326.7 0 653.4 0 990 0 C990 0.33 990 0.66 990 1 C663.3 1 336.6 1 0 1 C0 0.67 0 0.34 0 0 Z " fill="#000000" transform="translate(510,354)"/>
<path d="M0 0 C0.33 0 0.66 0 1 0 C1 43.23 1 86.46 1 131 C0.67 131 0.34 131 0 131 C0 87.77 0 44.54 0 0 Z " fill="#000000" transform="translate(362,216)"/>
<path d="M0 0 C42.9 0 85.8 0 130 0 C130 0.33 130 0.66 130 1 C87.1 1 44.2 1 0 1 C0 0.67 0 0.34 0 0 Z " fill="#000000" transform="translate(366,213)"/>
<path d="M0 0 C0.33 0 0.66 0 1 0 C1 9.24 1 18.48 1 28 C0.67 28 0.34 28 0 28 C0 18.76 0 9.52 0 0 Z " fill="#000000" transform="translate(1508,320)"/>
<path d="M0 0 C8.58 0 17.16 0 26 0 C26 0.33 26 0.66 26 1 C17.42 1 8.84 1 0 1 C0 0.67 0 0.34 0 0 Z " fill="#000000" transform="translate(508,1362)"/>
<path d="M0 0 C8.25 0 16.5 0 25 0 C25 0.33 25 0.66 25 1 C16.75 1 8.5 1 0 1 C0 0.67 0 0.34 0 0 Z " fill="#000000" transform="translate(471,1360)"/>
<path d="M0 0 C0.33 0 0.66 0 1 0 C1 8.25 1 16.5 1 25 C0.67 25 0.34 25 0 25 C0 16.75 0 8.5 0 0 Z " fill="#000000" transform="translate(1501,357)"/>
<path d="" fill="#000000" transform="translate(0,0)"/>
</svg>
